<svg xmlns="http://www.w3.org/2000/svg" width="470.202" height="74" viewBox="0 0 470.202 74">
  <g id="Group_11182" data-name="Group 11182" transform="translate(-13.698 -15.838)">
    <path id="Path_24661" data-name="Path 24661" d="M13.7,55.209c5.525,4.449,11.206,9.125,18.5,10.056,7.09.9,14.083-1.755,20.458-4.545,7.867-3.441,15.454-7.557,23.593-10.352,6.567-2.256,13.825-3.789,20.71-2.114a20.778,20.778,0,0,1,14.735,13.963c-5.437-4.05-11-7.064-17.973-5.854C84.838,57.9,76.746,63.318,68.811,67.3c-11.474,5.76-25.5,11.678-38.362,6.873C22.111,71.062,16.141,63.636,13.7,55.209Z" transform="translate(0 -5.735)" fill="#fff"/>
    <path id="Path_24662" data-name="Path 24662" d="M83.919,41.356a96.457,96.457,0,0,0-12.341,3.261,148.71,148.71,0,0,0-13.988,6.468c-7.3,3.563-16.085,7.407-24.276,4.838a13.458,13.458,0,0,1-8.054-6.714A16.817,16.817,0,0,0,37.5,52.068c5.368-.871,10.365-3.44,15.223-5.759C62.395,41.692,73.221,37.593,83.919,41.356Z" transform="translate(-2.091 -4.349)" fill="#fff"/>
    <path id="Path_24663" data-name="Path 24663" d="M120.722,72.758c-3.369-2.735-6.924-3.251-11.121-2.47a55.091,55.091,0,0,0-8.353,2.284c-7.225,2.576-14.188,6.154-22.016,6.42,3.92-1.921,7.828-3.825,11.675-5.894a77.714,77.714,0,0,1,9.716-4.768C106.946,66,118.16,64.234,120.722,72.758Z" transform="translate(-11.853 -9.146)" fill="#fff"/>
    <path id="Path_24664" data-name="Path 24664" d="M94.765,78.419c-1.461.521-2.9,1.08-4.4,1.669A28.412,28.412,0,0,1,48.384,85.25c-1.324.13-2.622.2-3.886.2a34.778,34.778,0,0,1-5.806-.478q-1.173-.2-2.327-.484A37.021,37.021,0,0,0,101.141,78.2q.371-.877.695-1.768A51.262,51.262,0,0,0,94.765,78.419Z" transform="translate(-4.1 -10.959)" fill="#fff"/>
    <path id="Path_24665" data-name="Path 24665" d="M35.635,43.626a12.253,12.253,0,0,0,1.952-.161q.826-.134,1.652-.333a28.442,28.442,0,0,1,50.812-5.448Q91.9,37.5,93.662,37.5a30.8,30.8,0,0,1,6.282.63,37.013,37.013,0,0,0-69.475,4.292A12.053,12.053,0,0,0,35.635,43.626Z" transform="translate(-3.033 0)" fill="#fff"/>
    <g id="Monterey_Peninsula" data-name="Monterey Peninsula" transform="translate(133.294 25.513)">
      <path id="Path_24666" data-name="Path 24666" d="M159.7,28.06h4.666l5.173,8.321,5.172-8.321h4.667V47.737h-4.3V34.892l-5.537,8.4h-.113l-5.482-8.321V47.737H159.7Z" transform="translate(-159.7 -27.723)" fill="#fff"/>
      <path id="Path_24667" data-name="Path 24667" d="M189,37.881v-.057a10.462,10.462,0,0,1,20.914-.056v.056A10.462,10.462,0,0,1,189,37.881Zm16.388,0v-.057a5.978,5.978,0,0,0-5.959-6.184,5.885,5.885,0,0,0-5.9,6.128v.056a5.978,5.978,0,0,0,5.959,6.184A5.885,5.885,0,0,0,205.388,37.881Z" transform="translate(-164.999 -27.649)" fill="#fff"/>
      <path id="Path_24668" data-name="Path 24668" d="M219.81,28.06H223.8l9.22,12.116V28.06h4.273V47.737h-3.682l-9.53-12.509V47.737H219.81Z" transform="translate(-170.572 -27.723)" fill="#fff"/>
      <path id="Path_24669" data-name="Path 24669" d="M251.77,32.052h-5.988V28.06h16.3v3.992H256.1V47.737H251.77Z" transform="translate(-175.269 -27.723)" fill="#fff"/>
      <path id="Path_24670" data-name="Path 24670" d="M270.315,28.06h14.842v3.852H274.616V35.9h9.277v3.851h-9.277v4.133H285.3v3.851H270.315Z" transform="translate(-179.706 -27.723)" fill="#fff"/>
      <path id="Path_24671" data-name="Path 24671" d="M293.885,28.06h9a7.838,7.838,0,0,1,5.734,2,6.175,6.175,0,0,1,1.687,4.5v.056a6.11,6.11,0,0,1-4.216,6.1l4.807,7.027h-5.06l-4.217-6.3h-3.4v6.3h-4.329Zm8.715,9.558c2.108,0,3.317-1.124,3.317-2.783v-.057c0-1.855-1.293-2.81-3.4-2.81h-4.3v5.65Z" transform="translate(-183.969 -27.723)" fill="#fff"/>
      <path id="Path_24672" data-name="Path 24672" d="M319.274,28.06h14.843v3.852H323.575V35.9h9.276v3.851h-9.276v4.133h10.682v3.851H319.274Z" transform="translate(-188.561 -27.723)" fill="#fff"/>
      <path id="Path_24673" data-name="Path 24673" d="M347.936,39.979,340.374,28.06h5.06l4.694,7.9,4.779-7.9h4.92l-7.562,11.835v7.842h-4.328Z" transform="translate(-192.377 -27.723)" fill="#fff"/>
      <path id="Path_24674" data-name="Path 24674" d="M378.87,28.06h8.04c4.694,0,7.534,2.783,7.534,6.8v.057c0,4.554-3.542,6.915-7.955,6.915H383.2v5.9H378.87Zm7.758,9.923c2.165,0,3.43-1.293,3.43-2.979v-.057c0-1.94-1.349-2.979-3.513-2.979H383.2v6.015Z" transform="translate(-199.34 -27.723)" fill="#fff"/>
      <path id="Path_24675" data-name="Path 24675" d="M402.372,28.06h14.843v3.852H406.673V35.9h9.277v3.851h-9.277v4.133h10.682v3.851H402.372Z" transform="translate(-203.59 -27.723)" fill="#fff"/>
      <path id="Path_24676" data-name="Path 24676" d="M425.943,28.06h3.992l9.22,12.116V28.06h4.273V47.737h-3.682l-9.529-12.509V47.737h-4.273Z" transform="translate(-207.854 -27.723)" fill="#fff"/>
      <path id="Path_24677" data-name="Path 24677" d="M453.871,28.06H458.2V47.737h-4.329Z" transform="translate(-212.905 -27.723)" fill="#fff"/>
      <path id="Path_24678" data-name="Path 24678" d="M465.743,28.06h3.992l9.22,12.116V28.06h4.273V47.737h-3.683l-9.529-12.509V47.737h-4.273Z" transform="translate(-215.052 -27.723)" fill="#fff"/>
      <path id="Path_24679" data-name="Path 24679" d="M491.783,44.808l2.558-3.064a9.025,9.025,0,0,0,5.875,2.389c1.771,0,2.84-.7,2.84-1.855v-.057c0-1.1-.675-1.659-3.964-2.5-3.964-1.012-6.522-2.108-6.522-6.016v-.057c0-3.57,2.867-5.931,6.887-5.931a11.385,11.385,0,0,1,7.308,2.5l-2.249,3.26a9.238,9.238,0,0,0-5.116-1.94c-1.658,0-2.53.759-2.53,1.715v.056c0,1.293.843,1.715,4.245,2.587,3.992,1.039,6.24,2.473,6.24,5.9v.057c0,3.907-2.98,6.1-7.225,6.1A12.522,12.522,0,0,1,491.783,44.808Z" transform="translate(-219.762 -27.661)" fill="#fff"/>
      <path id="Path_24680" data-name="Path 24680" d="M515.595,39.3V28.06h4.329V39.192c0,3.2,1.6,4.863,4.245,4.863s4.245-1.6,4.245-4.722V28.06h4.328v11.1c0,5.959-3.345,8.883-8.63,8.883S515.595,45.1,515.595,39.3Z" transform="translate(-224.068 -27.723)" fill="#fff"/>
      <path id="Path_24681" data-name="Path 24681" d="M542.494,28.06h4.329V43.8h9.81v3.935H542.494Z" transform="translate(-228.933 -27.723)" fill="#fff"/>
      <path id="Path_24682" data-name="Path 24682" d="M570.689,27.889h3.992l8.433,19.817h-4.526l-1.8-4.413h-8.32l-1.8,4.413h-4.414Zm4.554,11.582-2.614-6.381-2.615,6.381Z" transform="translate(-232.507 -27.692)" fill="#fff"/>
    </g>
    <g id="College" transform="translate(133.915 56.18)">
      <g id="Group_11182-2" data-name="Group 11182">
        <path id="Path_24683" data-name="Path 24683" d="M160.459,75.938v-.057a9.913,9.913,0,0,1,9.952-10.175,10.24,10.24,0,0,1,7.674,3.12l-1.518,1.63a8.552,8.552,0,0,0-6.184-2.7c-4.357,0-7.618,3.542-7.618,8.068v.056c0,4.554,3.289,8.124,7.618,8.124a8.542,8.542,0,0,0,6.353-2.839L178.2,82.6a10.243,10.243,0,0,1-7.87,3.458A9.815,9.815,0,0,1,160.459,75.938Z" transform="translate(-160.459 -65.2)" fill="#fff"/>
        <path id="Path_24684" data-name="Path 24684" d="M191.716,79.666V79.61a7.575,7.575,0,0,1,15.151-.057v.057a7.546,7.546,0,0,1-7.618,7.589A7.444,7.444,0,0,1,191.716,79.666Zm12.93,0V79.61a5.5,5.5,0,0,0-5.4-5.678,5.363,5.363,0,0,0-5.312,5.622v.057a5.452,5.452,0,0,0,5.369,5.65A5.362,5.362,0,0,0,204.646,79.666Z" transform="translate(-166.112 -66.342)" fill="#fff"/>
        <path id="Path_24685" data-name="Path 24685" d="M221.84,65.088H224v20.52H221.84Z" transform="translate(-171.561 -65.088)" fill="#fff"/>
        <path id="Path_24686" data-name="Path 24686" d="M237.485,65.088h2.164v20.52h-2.164Z" transform="translate(-174.39 -65.088)" fill="#fff"/>
        <path id="Path_24687" data-name="Path 24687" d="M251.791,79.638v-.057c0-4.188,2.952-7.561,6.972-7.561,4.3,0,6.774,3.43,6.774,7.674a5.679,5.679,0,0,1-.028.7H253.984a5.076,5.076,0,0,0,5.116,4.92,6.013,6.013,0,0,0,4.581-2.052l1.35,1.208a7.5,7.5,0,0,1-5.988,2.727A7.223,7.223,0,0,1,251.791,79.638Zm11.554-.844c-.225-2.642-1.743-4.947-4.639-4.947-2.53,0-4.441,2.108-4.722,4.947Z" transform="translate(-176.978 -66.342)" fill="#fff"/>
        <path id="Path_24688" data-name="Path 24688" d="M279.468,89.392l.984-1.687a9.29,9.29,0,0,0,5.594,1.855c3.2,0,5.284-1.771,5.284-5.173V82.674a6.889,6.889,0,0,1-5.706,3.064,6.72,6.72,0,0,1-6.831-6.8v-.057A6.88,6.88,0,0,1,291.3,74.943V72.329h2.165v12a7,7,0,0,1-1.855,5.144,7.645,7.645,0,0,1-5.538,1.94A11.4,11.4,0,0,1,279.468,89.392Zm11.918-10.485v-.057a5.091,5.091,0,0,0-5.341-4.919,4.806,4.806,0,0,0-5.032,4.891v.056a4.92,4.92,0,0,0,5.032,4.948A5.128,5.128,0,0,0,291.386,78.907Z" transform="translate(-181.861 -66.342)" fill="#fff"/>
        <path id="Path_24689" data-name="Path 24689" d="M308.128,79.638v-.057c0-4.188,2.951-7.561,6.972-7.561,4.3,0,6.774,3.43,6.774,7.674a5.691,5.691,0,0,1-.028.7H310.321a5.075,5.075,0,0,0,5.116,4.92,6.013,6.013,0,0,0,4.582-2.052l1.349,1.208a7.5,7.5,0,0,1-5.987,2.727A7.223,7.223,0,0,1,308.128,79.638Zm11.553-.844c-.224-2.642-1.742-4.947-4.638-4.947-2.53,0-4.441,2.108-4.722,4.947Z" transform="translate(-187.167 -66.342)" fill="#fff"/>
      </g>
    </g>
  </g>
</svg>
